Coordinates
version=1
nRows=12
nColumns=34
inDegrees=yes

Units are S.I. units (second, meters, Newtons, ...)
If the header above contains a line with 'inDegrees', this indicates whether rotational values are in degrees (yes) or radians (no).

endheader
time	pelvis_tilt	pelvis_list	pelvis_rotation	pelvis_tx	pelvis_ty	pelvis_tz	hip_flexion_r	hip_adduction_r	hip_rotation_r	knee_angle_r	ankle_angle_r	subtalar_angle_r	mtp_angle_r	hip_flexion_l	hip_adduction_l	hip_rotation_l	knee_angle_l	ankle_angle_l	subtalar_angle_l	mtp_angle_l	lumbar_extension	lumbar_bending	lumbar_rotation	arm_flex_r	arm_add_r	arm_rot_r	elbow_flex_r	pro_sup_r	arm_flex_l	arm_add_l	arm_rot_l	elbow_flex_l	pro_sup_l
      2.70000000	     -4.58179662	      2.01269414	     -0.44122689	     -0.64465993	      0.76166036	     -0.18293019	     52.19239411	     -9.26731918	     -2.59921351	     79.89597711	     34.08135383	     -6.89597375	      0.00000000	     48.99382583	     -8.67168238	    -11.25736266	     77.59419805	     34.51732668	      3.28238810	      0.00000000	    -52.64053081	     -0.73024380	      0.75178470	     22.55606772	    -10.69425500	     -7.84299835	     35.24271630	     84.22822437	     18.93442229	    -13.98468760	     10.39220727	     37.59238166	     92.92694337
      2.71666670	     -4.03705037	      2.09396463	     -0.67119024	     -0.64172368	      0.75940896	     -0.18182402	     51.95752440	     -9.23593574	     -2.31835388	     80.58066043	     34.07165743	     -7.15487744	      0.00000000	     48.49789602	     -8.68456921	    -11.16497421	     78.13990343	     35.13898138	      3.29621198	      0.00000000	    -53.81463709	     -0.90734206	      0.76433893	     23.00384028	    -10.79452571	     -7.91224351	     35.26641809	     84.41632780	     19.46660093	    -14.07152430	     10.47920206	     37.36914007	     93.10841629
      2.73333330	     -3.72518427	      2.25854471	     -0.90380457	     -0.64164022	      0.75708105	     -0.18275192	     51.93673827	     -9.25130687	     -1.91074305	     81.21131666	     34.12336845	     -7.33191890	      0.00000000	     48.24690796	     -8.62420520	    -11.27201530	     78.59590125	     35.87457711	      3.62642500	      0.00000000	    -54.61536319	     -1.14018771	      0.78798045	     23.29934392	    -10.91923887	     -7.94925860	     35.30979509	     84.61709889	     19.89757925	    -14.14163943	     10.51835531	     37.08758566	     93.26942313
      2.75000000	     -3.68021911	      2.29647436	     -1.08334875	     -0.64338696	      0.75822810	     -0.18220740	     52.08009036	     -9.15845776	     -1.73845096	     81.46116843	     34.01598253	     -7.35122242	      0.00000000	     48.19795171	     -8.56062571	    -11.28425356	     78.68229883	     36.09706164	      3.65644362	      0.00000000	    -55.09359709	     -1.26021659	      0.79767815	     23.56476495	    -11.03979616	     -7.96978902	     35.38286855	     84.70436743	     20.24384994	    -14.23075017	     10.48879461	     36.97879281	     93.32847389
      2.76666670	     -3.73693962	      2.30800425	     -1.09356148	     -0.64152581	      0.75781166	     -0.18164567	     52.07073993	     -9.13912293	     -1.73621437	     81.46944156	     34.01477040	     -7.35201671	      0.00000000	     48.15453056	     -8.53966802	    -11.27318988	     78.71584517	     36.10153185	      3.65934624	      0.00000000	    -55.11611943	     -1.25989177	      0.79545614	     23.55766291	    -11.04087534	     -7.96949745	     35.37979382	     84.70647089	     20.24572110	    -14.23290298	     10.48797061	     36.97255049	     93.32970684
      2.78333330	     -3.34307705	      2.45740361	     -1.42082573	     -0.63973976	      0.76109565	     -0.18152700	     51.33225906	     -8.86437931	     -1.32016076	     81.03579264	     33.97349850	     -7.59849494	      0.00000000	     47.22596307	     -8.60449123	    -11.64241828	     78.36020221	     36.55426290	      4.07856967	      0.00000000	    -55.59713673	     -1.69914361	      0.88529991	     23.30756166	    -11.10268938	     -7.89614489	     35.48119342	     85.01765911	     20.49553852	    -14.15351850	     10.32977526	     36.26510969	     93.48596158
      2.80000000	     -3.46472841	      2.47795529	     -1.44577541	     -0.64087678	      0.76366892	     -0.18189053	     51.04890066	     -8.74013325	     -1.32749715	     80.28757014	     34.03644723	     -7.59551100	      0.00000000	     47.08039369	     -8.58622298	    -11.80505955	     77.87567174	     36.24239678	      4.10437317	      0.00000000	    -55.29234692	     -1.78726652	      0.89110681	     22.86547850	    -11.05267107	     -7.88106581	     35.49357058	     85.10373972	     20.27207508	    -14.13565603	     10.30453418	     36.14024761	     93.53176393
      2.81666670	     -3.28412534	      2.45034307	     -1.50155828	     -0.63953274	      0.76785404	     -0.18191240	     50.25585458	     -8.55020946	     -1.27711370	     79.39513139	     33.99757866	     -7.72165160	      0.00000000	     46.36609386	     -8.55746269	    -11.87869764	     77.20661403	     35.73398918	      3.82824756	      0.00000000	    -55.13343880	     -1.87357909	      1.09917533	     22.18326247	    -11.18857429	     -7.92903506	     36.01202981	     85.55999474	     20.18235748	    -13.92248919	      9.96805029	     35.92140591	     93.75164444
      2.83333330	     -3.40162430	      2.42530902	     -1.50234087	     -0.63924796	      0.76947613	     -0.18193148	     49.76693417	     -8.43087033	     -1.28763211	     78.44429783	     34.10577202	     -7.70720561	      0.00000000	     46.06890495	     -8.55060662	    -11.90266720	     76.69328624	     35.48750490	      3.86897891	      0.00000000	    -54.40595423	     -1.87477197	      1.11156118	     21.52543270	    -11.08632510	     -7.91683341	     35.93338928	     85.62360320	     19.73564940	    -13.95184043	      9.94585156	     35.85207266	     93.78581666
      2.85000000	     -3.54274546	      2.23764227	     -1.52929427	     -0.63812854	      0.77347945	     -0.18238523	     49.10527616	     -8.19568236	     -1.45654246	     77.31744962	     33.90257066	     -7.79718485	      0.00000000	     45.80227673	     -8.59421706	    -11.75918318	     76.01389269	     34.86233933	      3.78998690	      0.00000000	    -53.53658969	     -1.72038347	      1.29330028	     20.80610329	    -11.11050341	     -7.93027393	     36.13430162	     85.86373796	     19.26078288	    -13.85211325	      9.71613827	     35.88002530	     93.89266194
      2.86666670	     -3.77766646	      2.19711119	     -1.53010101	     -0.63639145	      0.78190160	     -0.18205356	     48.34204716	     -8.03863381	     -1.53051375	     75.80189399	     33.59334000	     -7.70287709	      0.00000000	     45.17673431	     -8.41586702	    -11.78771957	     74.66064375	     34.50283936	      3.86965119	      0.00000000	    -52.39928358	     -1.74179745	      1.30285172	     20.01183997	    -10.98790033	     -7.89261806	     36.07903706	     85.95038336	     18.66637740	    -13.78691807	      9.65875038	     35.82392338	     93.93122117
      2.88333330	     -3.98386869	      2.12820630	     -1.67913580	     -0.63637339	      0.78965637	     -0.18236392	     47.49188715	     -7.78323655	     -1.63284098	     74.02848746	     32.60652574	     -7.71590008	      0.00000000	     44.22526312	     -8.24777496	    -11.86337176	     72.71629131	     33.55774426	      3.80908800	      0.00000000	    -51.44671275	     -1.72888821	      1.39110484	     19.50258494	    -11.03532637	     -7.83652501	     36.27216600	     86.17450897	     18.31185227	    -13.71650400	      9.36983761	     35.81510686	     94.01460203
